<svg width="448" height="176" xmlns="http://www.w3.org/2000/svg" xmlns:xlink="http://www.w3.org/1999/xlink" xml:space="preserve" overflow="hidden"><g transform="translate(-713 -517)"><path d="M148.212 12.0578C136.414 4.06313 118.746 0.0407253 95.2126 0.00313271L95.2126 0.00313271C94.3574 0 93.3079 0 92.0391 0L88.8657 0C77.4407 0 66.3352 1.48804 55.543 4.44219 44.754 7.40887 35.3307 12.0578 27.3016 18.4078 18.8307 25.1808 12.1675 34.1779 7.30862 45.3805 2.44038 56.5987 0.00939814 70.4516 0.00939814 86.9547L0.00939814 164.032 0 164.032 0.0187963 175.877 77.9858 175.755C78.9601 175.789 79.9406 175.808 80.9337 175.808 82.4029 175.808 83.9317 175.783 85.4886 175.742L85.8395 175.742 85.8395 175.733C92.2553 175.557 99.3916 175.053 107.274 174.22 117.21 173.154 126.634 170.31 135.518 165.652 143.98 161.426 151.276 154.543 157.416 145.023 163.543 135.502 166.617 122.285 166.617 105.356L166.617 47.5985C166.617 32.3672 160.48 20.5255 148.212 12.0578Z" fill="#FFFFFF" transform="matrix(1 0 0 1.0007 713.13 517)"/><path d="M191.653 84.9968 191.653 62.4005 197.301 62.4005 197.301 85.2505C197.301 89.2103 198.166 92.1112 199.892 93.9532 201.618 95.7921 204.325 96.7132 208.009 96.7132 211.693 96.7132 214.334 95.7921 216.085 93.9532 217.836 92.1112 218.714 89.2134 218.714 85.2505L218.714 62.4005 224.362 62.4005 224.362 84.9968C224.362 90.4164 222.936 94.608 220.089 97.5746 217.241 100.538 213.213 102.02 208.006 102.02 202.799 102.02 198.771 100.538 195.923 97.5746 193.075 94.6111 191.65 90.4195 191.65 84.9968Z" fill="#FFFFFF" transform="matrix(1 0 0 1.0007 713.13 517)"/><path d="M236.131 80.8366 236.131 75.3794 259.949 75.3794 259.949 80.8366 236.131 80.8366Z" fill="#FFFFFF" transform="matrix(1 0 0 1.0007 713.13 517)"/><path d="M272.211 101.409 272.211 47.5546 277.859 47.5546 277.859 81.5633 295.377 62.4037 303.012 62.4037 286.371 80.304 305.148 101.412 297.63 101.412 282.706 84.2763 277.859 89.5424 277.859 101.412 272.211 101.412Z" fill="#FFFFFF" transform="matrix(1 0 0 1.0007 713.13 517)"/><path d="M311.84 101.409 311.84 65.5301C316.959 62.9863 322.463 61.7145 328.346 61.7145 333.252 61.7145 337.058 62.9613 339.765 65.4549 342.471 67.9486 343.825 71.4603 343.825 75.9902L343.825 101.409 338.176 101.409 338.176 75.9902C338.176 74.8969 338.061 73.9227 337.835 73.0706 337.606 72.2185 337.161 71.31 336.5 70.342 335.839 69.374 334.774 68.6315 333.302 68.1083 331.83 67.5883 329.975 67.3252 327.738 67.3252 324.461 67.3252 321.047 67.8483 317.491 68.8915L317.491 101.412 311.843 101.412Z" fill="#FFFFFF" transform="matrix(1 0 0 1.0007 713.13 517)"/><path d="M353.68 91.9984C352.587 89.2134 352.039 85.8332 352.039 81.8641 352.039 77.8949 352.587 74.5179 353.68 71.7298 354.774 68.9448 356.262 66.8646 358.144 65.4894 360.027 64.1141 361.941 63.143 363.89 62.5697 365.835 61.9964 367.987 61.7113 370.34 61.7113 372.693 61.7113 374.857 61.9964 376.828 62.5697 378.798 63.143 380.728 64.1141 382.611 65.4894 384.494 66.8646 385.982 68.9448 387.075 71.7298 388.168 74.5147 388.717 77.8949 388.717 81.8641 388.717 85.8332 388.168 89.2103 387.075 91.9984 385.982 94.7834 384.491 96.8635 382.611 98.2388 380.728 99.614 378.798 100.585 376.828 101.158 374.857 101.732 372.693 102.017 370.34 102.017 367.987 102.017 365.835 101.732 363.89 101.158 361.944 100.585 360.027 99.614 358.144 98.2388 356.262 96.8635 354.774 94.7834 353.68 91.9984ZM360.704 70.4547C358.693 72.8481 357.69 76.6512 357.69 81.8672 357.69 87.0832 358.696 90.8894 360.704 93.2797 362.715 95.6731 365.932 96.8666 370.359 96.8666 374.785 96.8666 378.012 95.6825 380.036 93.3173 382.06 90.9521 383.071 87.1333 383.071 81.8672 383.071 76.6011 382.06 72.7823 380.036 70.4171 378.012 68.0519 374.789 66.8678 370.359 66.8678 365.929 66.8678 362.712 68.0645 360.704 70.4547Z" fill="#FFFFFF" transform="matrix(1 0 0 1.0007 713.13 517)"/><path d="M392.855 62.4005 398.769 62.4005 408.731 92.5905 417.7 62.4005 423.064 62.4005 432.158 92.6187 442.089 62.4005 447.737 62.4005 434.755 101.409 429.338 101.409 420.297 71.7579 411.247 101.409 405.831 101.409 392.855 62.4005Z" fill="#FFFFFF" transform="matrix(1 0 0 1.0007 713.13 517)"/><path d="M193.267 148.722 193.267 125.058 197.305 125.058 197.305 133.761C198.827 133.325 200.4 133.106 202.026 133.106 203.288 133.106 204.466 133.259 205.556 133.57 206.646 133.88 207.715 134.415 208.764 135.18 209.81 135.944 210.634 137.091 211.23 138.626 211.825 140.161 212.122 142.022 212.122 144.208 212.122 146.151 211.897 147.855 211.446 149.315 210.995 150.774 210.437 151.908 209.779 152.717 209.121 153.525 208.325 154.177 207.401 154.681 206.477 155.185 205.622 155.508 204.839 155.652 204.056 155.796 203.241 155.868 202.395 155.868 200.794 155.868 199.397 155.671 198.201 155.276 197.004 154.881 196.102 154.408 195.497 153.863 194.892 153.315 194.413 152.676 194.059 151.943 193.705 151.21 193.486 150.605 193.398 150.129 193.31 149.653 193.27 149.186 193.27 148.726ZM197.305 148.954C197.305 151.144 198.999 152.241 202.392 152.241 203.153 152.241 203.83 152.147 204.419 151.962 205.008 151.777 205.603 151.426 206.208 150.909 206.812 150.392 207.276 149.571 207.599 148.441 207.921 147.31 208.084 145.9 208.084 144.211 208.084 142.623 207.921 141.307 207.599 140.27 207.276 139.233 206.812 138.469 206.208 137.984 205.603 137.498 204.98 137.169 204.331 136.997 203.686 136.824 202.915 136.74 202.026 136.74 200.375 136.74 198.799 137.047 197.305 137.664L197.305 148.961Z" fill="#FFFFFF" transform="matrix(1 0 0 1.0007 713.13 517)"/><path d="M214.885 133.45 219.227 133.45 225.167 149.979 230.997 133.45 235.339 133.45 226.27 157.876C224.7 162.109 222.42 164.226 219.425 164.226L219.403 164.226C218.422 164.226 217.395 164.11 216.314 163.879L216.314 160.232C217.191 160.461 218.021 160.583 218.798 160.599 220.628 160.599 222.103 158.901 223.225 155.505L214.889 133.45Z" fill="#FFFFFF" transform="matrix(1 0 0 1.0007 713.13 517)"/><path d="M243.653 148.415 249.173 148.415C249.226 149.499 249.63 150.311 250.392 150.85 251.203 151.392 252.284 151.661 253.637 151.661 254.611 151.661 255.451 151.473 256.153 151.094 256.801 150.715 257.127 150.201 257.127 149.553 257.127 148.578 255.99 147.848 253.719 147.36 252.744 147.197 252.014 147.034 251.526 146.874 248.656 146.172 246.736 145.333 245.761 144.359 244.677 143.384 244.139 142.084 244.139 140.462 244.139 138.406 244.922 136.702 246.491 135.349 248.114 134.105 250.226 133.482 252.823 133.482 255.636 133.482 257.882 134.105 259.561 135.349 261.131 136.702 261.967 138.463 262.077 140.624L258.587 140.624C257.559 140.624 256.773 140.164 256.234 139.246 256.018 139.03 255.802 138.814 255.586 138.598 254.937 138.112 254.044 137.868 252.907 137.868 251.77 137.868 251.012 138.031 250.473 138.353 249.987 138.679 249.743 139.165 249.743 139.813 249.743 140.681 251.15 141.411 253.963 142.006 254.289 142.116 254.571 142.197 254.815 142.25 255.059 142.304 255.288 142.332 255.504 142.332 258.264 143.037 260.184 143.848 261.268 144.766 262.296 145.74 262.81 147.04 262.81 148.663 262.81 151.044 261.942 152.886 260.213 154.183 258.59 155.373 256.153 155.968 252.907 155.968 249.662 155.968 247.522 155.348 246.006 154.101 244.436 152.858 243.653 151.044 243.653 148.663L243.653 148.419Z" fill="#FFFFFF" transform="matrix(1 0 0 1.0007 713.13 517)"/><path d="M273.426 155.517C271.848 155.683 270.46 155.586 269.269 155.226 268.079 154.866 267.08 154.283 266.278 153.481 265.472 152.679 264.865 151.686 264.448 150.511 264.031 149.333 263.825 148.011 263.825 146.542L263.825 128.714 269.31 128.714 269.31 134.158 273.176 134.158 273.176 139.02 269.31 139.02 269.31 146.586C269.31 148.083 269.648 149.136 270.328 149.744 271.008 150.355 272.039 150.618 273.423 150.533L273.423 155.52Z" fill="#FFFFFF" transform="matrix(1 0 0 1.0007 713.13 517)"/><path d="M274.423 155.561 274.423 145.089C274.423 142.977 274.733 141.207 275.356 139.772 275.976 138.341 276.829 137.188 277.912 136.323 278.94 135.512 280.146 134.917 281.524 134.538 282.906 134.158 284.325 133.971 285.785 133.971L286.596 133.971 286.596 139.735 284.729 139.735C283.16 139.735 281.998 140.114 281.239 140.872 280.481 141.63 280.102 142.82 280.102 144.443L280.102 155.564 274.419 155.564Z" fill="#FFFFFF" transform="matrix(1 0 0 1.0007 713.13 517)"/><path d="M301.383 154.668C300.246 155.264 299.043 155.627 297.771 155.765 296.499 155.9 295.377 155.968 294.403 155.968 292.455 155.968 290.75 155.439 289.29 154.386 287.831 153.331 287.098 151.586 287.098 149.152 287.098 146.88 287.759 145.255 289.087 144.28 290.412 143.306 292.104 142.658 294.162 142.332 294.431 142.332 294.757 142.291 295.136 142.21 295.515 142.128 295.948 142.062 296.436 142.006 298.817 141.68 300.007 140.978 300.007 139.894 300.007 139.083 299.588 138.554 298.748 138.312 297.909 138.068 297.138 137.946 296.436 137.946 295.678 137.946 295.001 138.056 294.406 138.272 293.811 138.488 293.379 138.895 293.106 139.49L287.668 139.49C287.884 137.814 288.642 136.433 289.942 135.349 291.402 134.105 293.485 133.482 296.192 133.482 299.221 133.482 301.496 133.996 303.012 135.023 304.581 136.107 305.364 137.62 305.364 139.569L305.364 146.956C305.364 149.12 304.97 150.812 304.187 152.027 303.4 153.246 302.467 154.126 301.386 154.665ZM300.086 144.681C299.328 145.06 298.272 145.411 296.919 145.737L295.052 146.144C294.077 146.417 293.372 146.768 292.94 147.2 292.561 147.795 292.373 148.39 292.373 148.986 292.373 149.797 292.617 150.445 293.103 150.934 293.592 151.366 294.293 151.583 295.214 151.583 296.728 151.583 297.921 151.15 298.786 150.283 299.65 149.418 300.086 148.227 300.086 146.711L300.086 144.681Z" fill="#FFFFFF" transform="matrix(1 0 0 1.0007 713.13 517)"/><path d="M316.313 155.517C314.734 155.683 313.35 155.586 312.156 155.226 310.966 154.866 309.966 154.283 309.164 153.481 308.359 152.679 307.752 151.686 307.335 150.511 306.918 149.333 306.711 148.011 306.711 146.542L306.711 128.714 312.197 128.714 312.197 134.158 316.063 134.158 316.063 139.02 312.197 139.02 312.197 146.586C312.197 148.083 312.535 149.136 313.215 149.744 313.895 150.355 314.925 150.618 316.31 150.533L316.31 155.52Z" fill="#FFFFFF" transform="matrix(1 0 0 1.0007 713.13 517)"/><path d="M332.325 148.904 336.385 148.904C335.789 151.179 334.652 152.911 332.976 154.098 331.297 155.345 329.189 155.965 326.645 155.965 323.559 155.965 321.153 154.966 319.421 152.961 317.689 151.012 316.824 148.227 316.824 144.6 316.824 140.972 317.663 138.432 319.339 136.483 321.072 134.481 323.478 133.479 326.564 133.479 329.812 133.479 332.328 134.453 334.113 136.402 335.846 138.403 336.71 141.191 336.71 144.763L336.71 145.656C336.71 145.928 336.682 146.116 336.629 146.223L322.585 146.223C322.638 147.902 323.045 149.145 323.804 149.957 324.505 150.825 325.561 151.257 326.971 151.257 327.892 151.257 328.675 151.069 329.323 150.69 329.486 150.637 329.634 150.543 329.771 150.405 329.906 150.27 330.056 150.12 330.216 149.957 330.27 149.794 330.473 149.578 330.824 149.308 331.175 149.039 331.676 148.901 332.325 148.901ZM322.585 142.573 330.865 142.573C330.755 141.113 330.376 140.029 329.728 139.324 329.023 138.566 328.023 138.187 326.723 138.187 325.533 138.187 324.559 138.566 323.8 139.324 323.042 140.082 322.635 141.163 322.582 142.573Z" fill="#FFFFFF" transform="matrix(1 0 0 1.0007 713.13 517)"/><path d="M337.114 148.415 342.634 148.415C342.688 149.499 343.095 150.311 343.853 150.85 344.664 151.392 345.748 151.661 347.102 151.661 348.076 151.661 348.915 151.473 349.617 151.094 350.266 150.715 350.591 150.201 350.591 149.553 350.591 148.578 349.454 147.848 347.183 147.36 346.209 147.197 345.479 147.034 344.99 146.874 342.121 146.172 340.2 145.333 339.226 144.359 338.142 143.384 337.603 142.084 337.603 140.462 337.603 138.406 338.386 136.702 339.956 135.349 341.579 134.105 343.69 133.482 346.287 133.482 349.1 133.482 351.346 134.105 353.026 135.349 354.595 136.702 355.431 138.463 355.541 140.624L352.051 140.624C351.024 140.624 350.237 140.164 349.699 139.246 349.482 139.03 349.263 138.814 349.05 138.598 348.402 138.112 347.509 137.868 346.372 137.868 345.234 137.868 344.476 138.031 343.938 138.353 343.452 138.679 343.208 139.165 343.208 139.813 343.208 140.681 344.614 141.411 347.427 142.006 347.753 142.116 348.035 142.197 348.279 142.25 348.524 142.304 348.753 142.332 348.969 142.332 351.729 143.037 353.649 143.848 354.733 144.766 355.76 145.74 356.274 147.04 356.274 148.663 356.274 151.044 355.41 152.886 353.677 154.183 352.054 155.373 349.617 155.968 346.372 155.968 343.126 155.968 340.987 155.348 339.47 154.101 337.901 152.858 337.118 151.044 337.118 148.663L337.118 148.419Z" fill="#FFFFFF" transform="matrix(1 0 0 1.0007 713.13 517)"/><path d="M358.169 163.333 358.169 158.725C358.169 158.725 359.711 158.725 359.711 158.725 360.792 158.725 361.644 158.468 362.267 157.955 362.887 157.441 363.01 156.614 362.634 155.48L355.084 133.967 361.334 133.967 365.716 149.227 369.532 135.913C369.858 134.613 370.722 133.964 372.129 133.964L376.026 133.964 367.746 158.559C367.098 160.345 366.286 161.617 365.312 162.375 364.338 163.023 362.74 163.349 360.522 163.349 360.359 163.349 360.178 163.352 359.961 163.352 359.745 163.352 358.329 163.33 358.166 163.33Z" fill="#FFFFFF" transform="matrix(1 0 0 1.0007 713.13 517)"/><path d="M374.435 148.415 379.954 148.415C380.008 149.499 380.412 150.311 381.173 150.85 381.984 151.392 383.065 151.661 384.418 151.661 385.393 151.661 386.232 151.473 386.934 151.094 387.582 150.715 387.908 150.201 387.908 149.553 387.908 148.578 386.771 147.848 384.5 147.36 383.526 147.197 382.796 147.034 382.307 146.874 379.437 146.172 377.517 145.333 376.543 144.359 375.459 143.384 374.92 142.084 374.92 140.462 374.92 138.406 375.703 136.702 377.273 135.349 378.895 134.105 381.007 133.482 383.604 133.482 386.417 133.482 388.663 134.105 390.342 135.349 391.912 136.702 392.748 138.463 392.858 140.624L389.368 140.624C388.341 140.624 387.554 140.164 387.016 139.246 386.799 139.03 386.58 138.814 386.367 138.598 385.719 138.112 384.826 137.868 383.689 137.868 382.551 137.868 381.793 138.031 381.254 138.353 380.766 138.679 380.525 139.165 380.525 139.813 380.525 140.681 381.931 141.411 384.747 142.006 385.073 142.116 385.355 142.197 385.6 142.25 385.844 142.304 386.073 142.332 386.289 142.332 389.049 143.037 390.969 143.848 392.053 144.766 393.08 145.74 393.594 147.04 393.594 148.663 393.594 151.044 392.73 152.886 390.997 154.183 389.374 155.373 386.937 155.968 383.692 155.968 380.446 155.968 378.307 155.348 376.79 154.101 375.221 152.858 374.438 151.044 374.438 148.663L374.438 148.419Z" fill="#FFFFFF" transform="matrix(1 0 0 1.0007 713.13 517)"/><path d="M204.792 11.1055C211.233 11.1055 214.813 14.7864 214.813 22.2454 214.813 29.7044 211.264 33.2851 204.792 33.2851L201.769 33.2851C195.297 33.2851 191.747 29.6699 191.747 22.2454 191.747 14.8209 195.328 11.1055 201.769 11.1055L204.792 11.1055ZM201.766 14.9806C197.493 14.9806 195.619 17.1516 195.619 22.2423 195.619 27.3329 197.458 29.4068 201.766 29.4068L204.789 29.4068C209.062 29.4068 210.901 27.3047 210.901 22.2109 210.901 17.1171 209.062 14.9806 204.789 14.9806L201.766 14.9806Z" fill="#FFFFFF" transform="matrix(1 0 0 1.0007 713.13 517)"/><path d="M231.342 11.1055C236.335 11.1055 238.475 14.1943 238.475 17.7437 238.475 20.5036 237.156 23.4609 233.776 24.4101L238.932 33.2851 234.628 33.2851 229.568 24.7077 223.785 24.7077C223.422 24.7077 223.228 24.8706 223.228 25.2653L223.228 33.2851 219.346 33.2851 219.346 24.5104C219.346 22.0136 220.399 20.9954 222.83 20.9954L231.476 20.9954C233.679 20.9954 234.565 19.4823 234.565 17.9066 234.565 16.3308 233.613 14.9838 231.476 14.9838L219.318 14.9838 219.318 11.1086 231.345 11.1086Z" fill="#FFFFFF" transform="matrix(1 0 0 1.0007 713.13 517)"/><path d="M246.717 11.1055 246.717 33.2851 242.842 33.2851 242.842 11.1055 246.717 11.1055Z" fill="#FFFFFF" transform="matrix(1 0 0 1.0007 713.13 517)"/><path d="M264.298 11.1055C270.739 11.1055 274.319 14.7864 274.319 22.2454 274.319 29.7044 270.77 33.2851 264.298 33.2851L261.275 33.2851C254.802 33.2851 251.253 29.6699 251.253 22.2454 251.253 14.8209 254.834 11.1055 261.275 11.1055L264.298 11.1055ZM261.275 14.9806C257.002 14.9806 255.128 17.1516 255.128 22.2423 255.128 27.3329 256.967 29.4068 261.275 29.4068L264.298 29.4068C268.571 29.4068 270.41 27.3047 270.41 22.2109 270.41 17.1171 268.571 14.9806 264.298 14.9806L261.275 14.9806Z" fill="#FFFFFF" transform="matrix(1 0 0 1.0007 713.13 517)"/><path d="M282.731 33.2851 278.855 33.2851 278.855 15.5414C278.855 12.6499 280.497 10.7107 283.949 10.7107 287.038 10.7107 288.416 12.2865 289.337 14.8209L295.81 28.9839C296.073 29.5102 296.499 29.9049 297.223 29.9049 298.043 29.9049 298.541 29.4131 298.541 28.6549L298.541 11.1055 302.448 11.1055 302.448 28.8178C302.448 31.7407 300.772 33.6798 297.354 33.6798 294.265 33.6798 292.852 32.1009 291.928 29.5697L285.456 15.4067C285.158 14.7488 284.767 14.4543 284.078 14.4543 283.188 14.4543 282.731 14.9462 282.731 15.7356L282.731 33.2851Z" fill="#FFFFFF" transform="matrix(1 0 0 1.0007 713.13 517)"/><path d="M110.071 80.1536C111.719 77.8793 112.264 74.9502 111.525 72.2247 110.788 69.5055 108.843 67.2562 106.284 66.1222 106.343 65.6867 106.374 65.2482 106.374 64.8127 106.387 63.0114 105.876 61.2759 104.902 59.7691 105.153 58.9138 105.281 58.0304 105.278 57.1344 105.272 51.9874 101.08 47.7927 95.93 47.7864L95.861 47.7864C94.6299 44.7602 91.7917 42.6425 88.5148 42.3418 85.404 42.0661 82.3872 43.4507 80.5797 45.9444 78.7752 43.4507 75.7647 42.0692 72.6476 42.3418 69.374 42.6456 66.5357 44.7634 65.3014 47.7864L65.2325 47.7864C60.0855 47.7927 55.8908 51.9843 55.8845 57.1313 55.8845 58.0304 56.0098 58.9138 56.2604 59.7691 55.283 61.2728 54.7755 63.0114 54.788 64.8096 54.788 65.2482 54.8194 65.6867 54.8789 66.1222 52.3163 67.2562 50.3709 69.5055 49.6379 72.2247 48.8985 74.9471 49.4436 77.8761 51.0914 80.1536 49.4593 82.406 48.9048 85.3101 49.6159 88.0105 50.327 90.7234 52.2474 92.9915 54.7943 94.1475 54.7912 94.2352 54.7912 94.3197 54.7912 94.4043 54.7974 99.5545 58.989 103.746 64.1392 103.752 64.5182 103.752 64.9004 103.73 65.2764 103.683 66.4856 106.722 69.305 108.862 72.5819 109.188 72.8701 109.216 73.1614 109.231 73.4496 109.231 76.2691 109.231 78.9287 107.872 80.5797 105.594 82.3998 108.107 85.4416 109.501 88.5806 109.188 91.8606 108.862 94.6769 106.719 95.883 103.683 96.262 103.727 96.6442 103.752 97.0233 103.752 102.173 103.746 106.365 99.5545 106.371 94.4043 106.371 94.3166 106.371 94.232 106.368 94.1475 108.915 92.9915 110.835 90.7265 111.547 88.0105 112.255 85.3069 111.703 82.406 110.071 80.1536ZM102.922 93.3455C102.991 93.6963 103.026 94.0503 103.022 94.4012 103.016 96.3059 102.098 98.1135 100.563 99.2381 99.0282 100.366 97.0264 100.698 95.2157 100.131 94.7583 99.9837 94.2571 100.043 93.8467 100.291 93.4363 100.538 93.1481 100.952 93.0635 101.422 92.5278 104.182 90.053 106.089 87.2148 105.817 84.411 105.56 82.2839 103.245 82.2588 100.435L82.2588 90.4164 86.0651 90.4164C86.3501 90.4164 86.5851 90.6482 86.5851 90.9364L86.5851 92.9445C85.0375 93.6838 84.1541 95.3629 84.4486 97.0859 84.7681 98.9468 86.3721 100.3 88.258 100.3 90.1438 100.3 91.7478 98.9499 92.0673 97.0859 92.3618 95.3629 91.4753 93.6869 89.9308 92.9445L89.9308 90.9364C89.9308 88.8062 88.1953 87.0707 86.0651 87.0707L82.2525 87.0707 82.2525 84.5269 85.7894 84.5269C86.7135 84.5269 87.4622 83.775 87.4622 82.854 87.4622 81.933 86.7104 81.1812 85.7894 81.1812L82.2525 81.1812 82.2525 78.2489 97.0233 78.2489C97.3084 78.2489 97.5433 78.4808 97.5433 78.769L97.5433 80.777C95.9958 81.5163 95.1123 83.1955 95.4068 84.9185 95.7263 86.7793 97.3303 88.1326 99.2162 88.1326 101.102 88.1326 102.706 86.7824 103.026 84.9185 103.32 83.1955 102.433 81.5163 100.889 80.777L100.889 78.769C100.889 76.6356 99.1535 74.9032 97.0233 74.9032L82.2525 74.9032 82.2525 71.5261 94.2508 71.5261C95.175 71.5261 95.9237 70.7743 95.9237 69.8533 95.9237 68.9322 95.1719 68.1804 94.2508 68.1804L82.2525 68.1804 82.2525 64.6968 86.0588 64.6968C88.1922 64.6968 89.9246 62.9613 89.9246 60.831L89.9246 58.823C91.4721 58.0837 92.3555 56.4045 92.0611 54.6815 91.7415 52.8207 90.1376 51.4674 88.2517 51.4674 86.3658 51.4674 84.7618 52.8176 84.4423 54.6815 84.1478 56.4045 85.0344 58.0837 86.5788 58.823L86.5788 60.831C86.5788 61.1161 86.347 61.3511 86.0588 61.3511L82.2525 61.3511 82.2525 51.1071C82.2557 48.1028 84.7023 45.6593 87.7035 45.6562 90.2754 45.6656 92.4652 47.423 93.0291 49.9292 93.2233 50.822 94.0879 51.3922 94.9745 51.2167 95.2846 51.1635 95.623 51.1384 95.9268 51.1353 99.2287 51.1353 101.923 53.8294 101.926 57.1344 101.929 57.9145 101.782 58.6757 101.484 59.3963 101.249 59.9633 101.343 60.6118 101.729 61.0879 102.574 62.1343 103.032 63.4531 103.022 64.8064 103.022 65.4487 102.922 66.0815 102.722 66.6892 102.578 67.1341 102.621 67.6196 102.85 68.0331 103.079 68.4404 103.47 68.7349 103.925 68.8445 106.039 69.3552 107.715 70.9779 108.292 73.08 108.868 75.1789 108.257 77.4282 106.7 78.9507 106.378 79.2639 106.193 79.7025 106.193 80.1536 106.193 80.6047 106.378 81.0433 106.7 81.3535 108.229 82.8478 108.849 85.0594 108.32 87.127 107.79 89.1946 106.183 90.833 104.128 91.4095 103.286 91.6413 102.759 92.4902 102.925 93.3455ZM88.2548 97.4368C87.6909 97.4368 87.2336 96.9763 87.2336 96.4155 87.2336 95.8548 87.6941 95.3943 88.2548 95.3943 88.8156 95.3943 89.2761 95.8548 89.2761 96.4155 89.2761 96.9763 88.8156 97.4368 88.2548 97.4368ZM99.2162 85.2693C98.6523 85.2693 98.1949 84.8151 98.1949 84.2512 98.1949 83.6873 98.6554 83.2299 99.2162 83.2299 99.7769 83.2299 100.237 83.6905 100.237 84.2512 100.237 84.812 99.7769 85.2693 99.2162 85.2693ZM88.2548 54.3213C88.8187 54.3213 89.2761 54.7818 89.2761 55.3425 89.2761 55.9033 88.8156 56.3638 88.2548 56.3638 87.6941 56.3638 87.2336 55.9033 87.2336 55.3425 87.2336 54.7818 87.6941 54.3213 88.2548 54.3213ZM71.2348 64.8064C71.2348 65.7306 71.9866 66.4793 72.9077 66.4793 76.2127 66.4793 78.9037 69.1735 78.9068 72.4785L78.9068 88.3425C77.2371 86.936 75.1162 86.1528 72.9077 86.1528 71.9835 86.1528 71.2348 86.9046 71.2348 87.8256 71.2348 88.7467 71.9866 89.4985 72.9077 89.4985 76.2127 89.5016 78.9037 92.1926 78.9068 95.4977L78.9068 100.425C78.8849 103.239 76.7546 105.554 73.9508 105.811 71.1345 106.052 68.6346 104.178 68.1021 101.422 68.0175 100.949 67.7324 100.535 67.3189 100.288 67.0557 100.128 66.755 100.046 66.4543 100.046 66.2851 100.046 66.1159 100.071 65.9499 100.125 64.1361 100.692 62.1343 100.36 60.5961 99.235 59.0611 98.1103 58.14 96.3028 58.1369 94.3981 58.1369 94.0378 58.1682 93.6838 58.2372 93.3392 58.4001 92.484 57.8738 91.6381 57.0373 91.4063 54.9791 90.833 53.372 89.1915 52.8426 87.1239 52.3132 85.0532 52.9335 82.8415 54.4591 81.3535 54.7818 81.0402 54.9697 80.6016 54.9697 80.1568 54.9729 79.7056 54.788 79.2671 54.4622 78.9507 52.9021 77.4313 52.2944 75.182 52.8677 73.08 53.4441 70.981 55.117 69.3583 57.2347 68.8445 57.6952 68.7349 58.0837 68.4373 58.3092 68.0331 58.5379 67.6259 58.5849 67.1372 58.4376 66.6892 58.2372 66.0815 58.1338 65.4487 58.1369 64.8002 58.1275 63.4531 58.588 62.1343 59.4338 61.0879 59.8192 60.6086 59.9132 59.9601 59.6782 59.3963 59.3806 58.6726 59.2302 57.9145 59.2334 57.1313 59.2334 53.8263 61.9275 51.1353 65.2356 51.1322 65.5614 51.1322 65.8778 51.1604 66.1817 51.2136 67.0714 51.389 67.936 50.8158 68.1271 49.9261 68.7223 47.1943 71.2567 45.3868 74.0448 45.6687 76.8204 45.9726 78.9099 48.3064 78.9068 51.1008L78.9068 65.3202C77.2371 63.9168 75.1162 63.1305 72.9077 63.1273 71.9835 63.1273 71.2348 63.8792 71.2348 64.8002Z" fill="#EB6A15" transform="matrix(1 0 0 1.0007 713.13 517)"/><path d="M69.6214 54.362C65.6773 54.3651 62.4695 57.5761 62.4663 61.5171 62.4663 62.4381 63.2182 63.19 64.1392 63.19 65.0602 63.19 65.8121 62.4381 65.8121 61.5171 65.8121 59.4182 67.5225 57.7109 69.6214 57.7109 70.5424 57.7109 71.2943 56.959 71.2943 56.038 71.2943 55.117 70.5424 54.3651 69.6214 54.3651Z" fill="#EB6A15" transform="matrix(1 0 0 1.0007 713.13 517)"/><path d="M67.4285 77.3812C62.883 77.3874 59.1832 81.0872 59.177 85.6327 59.177 86.5569 59.9288 87.3056 60.8498 87.3056 61.7709 87.3056 62.5227 86.5538 62.5227 85.6327 62.5258 82.9323 64.7281 80.7332 67.4254 80.73 68.3496 80.73 69.0983 79.9782 69.0983 79.0572 69.0983 78.1362 68.3464 77.3843 67.4254 77.3843Z" fill="#EB6A15" transform="matrix(1 0 0 1.0007 713.13 517)"/><path d="M111.653 50.5651 113.52 48.698C114.006 48.2281 114.2 47.5327 114.031 46.8811 113.858 46.2263 113.351 45.7188 112.696 45.5465 112.042 45.3742 111.349 45.5716 110.879 46.0572L109.012 47.9243C108.476 48.46 108.317 49.2619 108.608 49.9605 108.896 50.6591 109.579 51.1134 110.334 51.1134 110.829 51.1134 111.305 50.916 111.656 50.5651Z" fill="#EB6A15" transform="matrix(1 0 0 1.0007 713.13 517)"/><path d="M96.3122 42.1851C97.0671 42.1851 97.7501 41.7309 98.0383 41.0323L100.184 35.8539C100.457 35.2336 100.372 34.5162 99.9649 33.9743 99.5576 33.4323 98.8873 33.1566 98.2169 33.2506 97.5464 33.3446 96.9794 33.7926 96.7319 34.4223L94.586 39.6006C94.3949 40.058 94.3949 40.5718 94.586 41.0323 94.7771 41.4897 95.1405 41.8531 95.5979 42.0442 95.8235 42.1381 96.0678 42.1851 96.3122 42.1851L96.3122 42.1851Z" fill="#EB6A15" transform="matrix(1 0 0 1.0007 713.13 517)"/><path d="M120.992 63.9575C121.944 63.5628 122.398 62.4695 122.004 61.5171 121.609 60.5648 120.516 60.1105 119.563 60.5052L114.385 62.6511C113.432 63.0459 112.978 64.1392 113.373 65.0947 113.768 66.047 114.861 66.5013 115.816 66.1065L120.995 63.9606Z" fill="#EB6A15" transform="matrix(1 0 0 1.0007 713.13 517)"/><path d="M135.74 131.408 127.558 89.4014C127.216 87.6439 125.681 86.3783 123.893 86.3752L120.274 86.3752 120.008 84.7806C119.739 83.1767 118.47 81.9299 116.863 81.6855 116.697 81.6605 116.149 81.6072 115.271 81.5257 114.018 81.4098 113.135 82.0552 113.107 83.2644 113.075 84.4736 114.003 85.1158 114.946 85.2192 115.885 85.3226 115.744 85.3038 116.336 85.3915L123.078 125.963C109.892 121.565 95.6355 121.571 82.453 125.979L82.453 112.261C82.453 111.23 81.6166 110.391 80.5828 110.391L80.5828 110.391C79.5521 110.391 78.7157 111.227 78.7157 112.261L78.7157 125.979C65.5332 121.571 51.2763 121.565 38.0875 125.963L44.8291 85.3915C45.4212 85.3038 45.2802 85.3226 46.2201 85.2192 47.1599 85.1158 48.0872 84.4768 48.059 83.2644 48.0308 82.0552 47.1473 81.4098 45.8943 81.5257 45.0171 81.6072 44.4689 81.6605 44.3028 81.6855 42.6958 81.9267 41.427 83.1767 41.1576 84.7806L40.8913 86.3752 37.273 86.3752C35.4842 86.3752 33.9461 87.6439 33.6078 89.4014L25.4251 131.408C25.1056 133.053 25.5379 134.754 26.6061 136.048 27.6744 137.338 29.2627 138.087 30.9387 138.084L69.9034 138.084C71.4509 140.637 76.1531 141.821 80.5828 141.821L80.5828 141.821C85.0156 141.821 89.7147 140.637 91.2622 138.084L130.227 138.084C131.903 138.087 133.491 137.341 134.559 136.048 135.628 134.757 136.06 133.053 135.74 131.408ZM69.5243 134.343 30.9387 134.343C30.3748 134.343 29.8391 134.093 29.482 133.657 29.128 133.231 28.9839 132.667 29.0904 132.125L37.273 90.1188 40.2616 90.1188 34.3972 125.356C34.1904 126.637 34.6635 127.937 35.644 128.786 36.6277 129.635 37.9779 129.917 39.2184 129.528 49.1805 126.302 59.791 125.628 70.0788 127.57L69.5212 134.343ZM80.5828 138.081C76.0811 138.081 73.4997 136.749 73.1207 136.157L73.7629 128.404C75.8179 128.914 77.8291 129.591 79.7746 130.421 80.0252 130.543 80.3009 130.606 80.5797 130.606L80.5797 130.606C80.8585 130.606 81.1342 130.54 81.3848 130.421 83.3333 129.591 85.3445 128.917 87.3996 128.404L88.0418 136.157C87.6627 136.749 85.0782 138.081 80.5797 138.081ZM131.68 133.657C131.323 134.093 130.788 134.343 130.224 134.343L91.6381 134.343 91.0805 127.57C101.368 125.628 111.979 126.302 121.941 129.528 123.181 129.917 124.532 129.635 125.515 128.786 126.496 127.937 126.969 126.637 126.762 125.356L120.898 90.1188 123.886 90.1188 132.069 132.125C132.175 132.67 132.028 133.231 131.677 133.657Z" fill="#EB6A15" transform="matrix(1 0 0 1.0007 713.13 517)"/><path d="M82.4499 35.3182 82.4499 29.222C82.4499 28.1913 81.6135 27.3549 80.5828 27.3549 79.5521 27.3549 78.7157 28.1913 78.7157 29.222L78.7157 35.3182C78.7157 36.3489 79.5521 37.1853 80.5828 37.1853 81.6135 37.1853 82.4499 36.3489 82.4499 35.3182Z" fill="#EB6A15" transform="matrix(1 0 0 1.0007 713.13 517)"/><path d="M50.8314 51.1134C51.5864 51.1134 52.2693 50.6591 52.5575 49.9605 52.8458 49.2619 52.686 48.46 52.1534 47.9243L50.2863 46.0572C49.8164 45.5716 49.121 45.3774 48.4694 45.5465 47.8146 45.7188 47.3071 46.2263 47.1348 46.8811 46.9625 47.5358 47.1599 48.2281 47.6454 48.698L49.5125 50.5651C49.8634 50.916 50.3396 51.1134 50.8346 51.1134Z" fill="#EB6A15" transform="matrix(1 0 0 1.0007 713.13 517)"/><path d="M64.8503 42.1851C65.0947 42.1851 65.339 42.135 65.5646 42.0442 66.0219 41.8531 66.3853 41.4897 66.5764 41.0323 66.7675 40.5749 66.7644 40.0611 66.5764 39.6006L64.4305 34.4223C64.183 33.7926 63.616 33.3415 62.9456 33.2506 62.2752 33.1566 61.608 33.4355 61.1976 33.9743 60.7872 34.5131 60.7057 35.2336 60.9783 35.8539L63.1242 41.0323C63.4124 41.7309 64.0953 42.1851 64.8503 42.1851L64.8503 42.1851Z" fill="#EB6A15" transform="matrix(1 0 0 1.0007 713.13 517)"/><path d="M45.3492 66.1034C46.3015 66.4981 47.3948 66.047 47.7927 65.0915 48.1874 64.1392 47.7363 63.0459 46.7808 62.648L41.6024 60.5021C40.6501 60.1074 39.5568 60.5616 39.1621 61.514 38.7673 62.4663 39.2216 63.5596 40.1739 63.9544L45.3523 66.1003Z" fill="#EB6A15" transform="matrix(1 0 0 1.0007 713.13 517)"/></g></svg>